<svg width="18" height="18" fill="none" id="google" xmlns="http://www.w3.org/2000/svg"><path d="M17.855 7.334c.08 0 .145.065.145.145V9a9.002 9.002 0 01-9.063 9A8.979 8.979 0 010 8.98a9 9 0 0115.258-6.448c.059.056.06.15.003.207l-2.152 2.152a.144.144 0 01-.202.003A5.649 5.649 0 009 3.332a5.651 5.651 0 00-5.668 5.629 5.668 5.668 0 0011.087 1.705H9.145A.145.145 0 019 10.521V7.48c0-.08.065-.145.145-.145h8.71z" fill="#2196F3"/><path d="M17.855 7.334h-1.087c.08 0 .145.065.145.145V9a9.004 9.004 0 01-8.457 8.984A9.002 9.002 0 0018 9V7.479a.145.145 0 00-.145-.145z" fill="#1E88E5"/><path d="M3.852 6.626L1.118 4.651A8.998 8.998 0 019 0c2.432 0 4.638.965 6.258 2.532.059.056.06.15.003.207l-2.152 2.152a.144.144 0 01-.202.003 5.668 5.668 0 00-9.056 1.732z" fill="#F44336"/><path d="M3.063 6.056l.789.57A5.671 5.671 0 018.41 3.363l.046-.005a5.651 5.651 0 00-5.393 2.698zM14.172 2.532c.058.056.06.15.002.207l-1.746 1.747c.167.127.327.263.479.408a.144.144 0 00.202-.003L15.26 2.74a.145.145 0 00-.003-.207A8.973 8.973 0 008.457.017a8.971 8.971 0 015.715 2.515z" fill="#E53935"/><path d="M15.602 15.117A8.975 8.975 0 019 18a8.999 8.999 0 01-8.052-4.975l2.791-1.912a5.67 5.67 0 009.13 2.029l2.733 1.975z" fill="#4CAF50"/><path d="M3.74 11.113l-.824.564a5.667 5.667 0 005.54 2.965 5.673 5.673 0 01-4.717-3.529zM9 18a8.975 8.975 0 006.602-2.883l-.67-.484a8.984 8.984 0 01-6.474 3.35c.18.011.36.017.542.017z" fill="#43A047"/><path d="M3.332 9c0 .747.145 1.46.407 2.113L.95 13.025A8.959 8.959 0 010 9c0-1.577.406-3.06 1.118-4.349l2.734 1.975A5.645 5.645 0 003.332 9z" fill="#FFC107"/><path d="M2.916 11.677l.823-.564A5.651 5.651 0 013.332 9c0-.848.186-1.652.52-2.374l-.79-.57a5.66 5.66 0 00-.817 2.905 5.644 5.644 0 00.671 2.716z" fill="#FFB300"/></svg>