<svg aria-hidden="true" style="position:absolute;width:0;height:0" xmlns="http://www.w3.org/2000/svg" overflow="hidden"><defs><symbol id="icon-filtr-svg" viewBox="0 0 40 32"><path d="M8 16H0l10 10 10-10h-8c0-6.62 5.38-12 12-12s12 5.38 12 12-5.38 12-12 12v4c8.84 0 16-7.16 16-16S32.84 0 24 0 8 7.16 8 16z"/><symbol id="icon-right" viewBox="0 0 19 32"><path d="M1.414 4.986L4.8 1.6 19.2 16 4.8 30.4l-3.386-3.382L12.406 16 1.414 4.986z"/></symbol><symbol id="icon-left" viewBox="0 0 19 32"><path d="M17.786 4.986L14.4 1.6 0 16l14.4 14.4 3.386-3.382L6.794 16 17.783 4.986z"/></symbol></defs></svg>